Patient4_TMGait_0pt4_02_right_11_EMG.mot
version=1
nRows=20
nColumns=33
inDegrees=no
endheader
time	1LAddLong	2LGlutMax	3LGlutMed	4LIliopsoas	5LSemiMemb	6LBicFemLong	7LRecFem	8LVastMed	9LVastLat	10LGasMed	11LTibAnt	12lTibPost	13LPeroneusLong	14LSol	15LExtDigLong	16LFlexDigLong	17RAddLong	18RGlutMax	19RGlutMed	20RIliopsoas	21RSemiMemb	22RBicFemLong	23RRecFem	24RVastMed	25RVastLat	26RGasMed	27RTibAnt	28RTibPost	29RPeroneusLong	30RSol	31RExtDigLong	32RFlexDigLong
14.02	0.003052	-0.040894	-0.07782	0.035858	0.01297	-0.042267	-0.10376	-0.009003	0.015106	0.031738	-0.00824	0.000763	-0.11459	-0.035248	-0.22705	0.010071	-0.005341	-0.024872	0.10025	-0.10483	0.069427	-0.074463	0.19562	-0.041351	-0.027771	-0.008392	-0.044556	-0.000458	-0.1207	-0.014343	-0.001526	-0.014648
14.021	0.00061	-0.014648	-0.13657	0.021515	0.018616	0.013123	-0.079193	-0.00061	0.012512	0.039978	-0.051117	0.005341	-0.018768	-0.1767	-0.13184	0.009003	0.004425	-0.068817	-0.18784	-0.034637	0.071106	-0.12146	0.17425	-0.060272	-0.01236	-0.00824	0.36972	-0.002441	-0.24902	0.006866	0	-0.014343
14.022	-0.003052	0.004883	-0.1059	0.018463	0.021667	-0.000916	-0.048065	0.001221	0.070343	0.02182	-0.097351	-0.001984	0.061035	-0.11536	-0.045776	0.012207	0.008087	-0.070496	-0.24704	0.006561	0.088806	-0.10162	0.13031	-0.074768	-0.006104	0	0.41748	-0.002136	-0.19699	-0.063171	-0.006866	-0.019836
14.023	0.009308	0.026398	0.05249	-0.014954	0.019836	0.037231	0.000458	0.009918	0.18219	0.026703	-0.085144	-0.001678	-0.043793	-0.070038	-0.021057	0.008698	-0.009155	-0.076752	-0.18662	0.046234	0.09079	-0.050201	0.099335	-0.026703	-0.028076	0.000153	0.057526	-0.001373	-0.23193	-0.084991	0.000916	-0.012817
14.024	-0.003052	0.026703	-0.043488	0.012512	0.020294	0.046844	0.01709	0.009613	0.17685	0.015564	-0.11383	-0.000458	-0.05127	-0.13565	0.020142	0.017242	-0.006104	-0.1326	0.048828	0.13229	0.071564	-0.014496	0.080566	-0.038605	-0.010223	-0.000305	-0.39032	0.001068	0.041046	-0.07431	-0.000763	-0.018921
14.025	0.002899	0.037842	-0.020294	0.013733	0.019836	0.016174	0.033417	-0.000916	0.076447	0.014191	-0.065613	0.004272	-0.13351	-0.1651	0.092163	0.01297	0.014496	-0.16083	0.24139	0.078278	0.062714	-0.029907	0.07782	-0.029297	-0.010071	-0.001526	-0.34409	-0.005341	0.47073	-0.059662	-0.001831	-0.022583
14.026	0.000916	0.070953	0.034943	-0.004578	0.02533	0.003815	-0.003204	0.005493	0.01297	0.020752	0.045929	0.005646	-0.21027	-0.074463	0.12741	0.021057	0.037384	-0.15198	0.48263	0.060272	0.040131	-0.045166	0.053253	-0.059662	-0.011444	-0.004425	-0.10696	0.001984	0.298	-0.051117	0.000305	-0.012207
14.027	0.006104	0.063782	0.050354	-0.009766	0.014191	0.02243	0.001373	0.00351	-0.026855	0.047913	0.031128	0.004272	-0.12741	-0.021515	0.1239	0.020905	0.009155	-0.14374	0.25665	-0.00824	0.038452	-0.040436	0.054474	-0.071259	-0.022736	-0.007782	0.034027	-0.006409	0.29144	-0.01297	-0.000305	-0.010986
14.028	0.042114	0.054016	-0.052795	0.014191	0.022278	0.00351	-0.000916	0.005951	-0.036163	0.038452	0.048676	0.005188	0.004883	-0.003357	0.11841	0.010223	0.008087	-0.16769	0.054474	0.016022	0.052338	-0.033417	0.097809	-0.075836	-0.035858	-0.001831	0.16937	-0.000916	0.46173	-0.038757	-0.000916	-0.01236
14.029	-0.013123	0.059204	-0.14862	0.034027	0.0177	0.007172	-0.006866	0.010986	-0.018616	0.006256	-0.06958	0.007782	0.10513	-0.13214	0.065613	0.019684	0.005798	-0.10315	0.052338	0.062103	0.043488	-0.037537	0.09613	-0.034332	-0.013733	-0.001221	0.19119	-0.001221	0.16312	0	-0.000916	-0.010223
14.03	-0.044556	0.048981	-0.057526	0.013123	0.021362	0.022125	0.017548	0.006409	-0.024414	-0.019531	-0.090027	-0.003204	0.14908	-0.089264	0.086365	0.010681	-0.009003	-0.10407	0.11047	0.15595	0.047913	-0.048523	0.10819	-0.039063	-0.010834	-0.001221	0.009308	-0.004578	-0.12314	0.009003	-0.001678	-0.011444
14.031	0.001526	0.053864	0.041504	-0.007477	0.016327	0.007629	-0.026398	-0.00061	-0.029755	-0.015259	0.0354	0.001678	0.10071	0.00885	0.16617	0.007935	0.01358	-0.085297	0.25894	0.10223	0.040588	-0.056763	0.04837	-0.035553	0.00473	0.000305	-0.18387	0.003662	-0.043945	-0.041656	-0.005798	-0.007324
14.032	-0.000153	0.034485	0.02182	0.009003	0.019073	0.008545	-0.055847	0.003662	0.032806	0.011902	0.15121	0.005188	0.001678	0.091705	0.10666	0.011139	0.035553	-0.1207	0.14267	0.11734	0.036011	-0.052185	0.090942	-0.069885	-0.016937	-0.007935	-0.29251	-0.001526	0.10208	-0.017242	-0.000916	-0.002136
14.033	0	0.079956	0.067596	-0.014191	0.018005	0.037689	-0.015564	0.001068	0.049133	0.037689	0.04837	0.005951	-0.030365	0.0737	-0.16571	0.019836	0.027161	-0.11932	0.007324	0.080109	0.03479	-0.064087	0.043793	-0.06485	0.002747	-0.008545	-0.20966	-0.003815	0.42358	-0.015564	-0.001984	-0.008545
14.034	-0.002136	0.044098	0.056	0.015717	0.014648	0.024261	0.000458	0.003204	0.026703	0.061798	0.035858	0.002747	-0.046844	0.028687	-0.18097	0.003662	0.012512	-0.11429	-0.086212	0.023956	0.037537	-0.074768	0.040436	-0.079803	-0.018158	0.000763	-0.042114	-0.001678	0.45059	-0.057373	-0.007935	-0.005341
14.035	-0.002899	0.023651	-0.06134	0.023804	0.002136	0.040283	-0.027008	0.006256	0.023651	0.048981	0.15457	-0.000458	-0.013123	0	0.045166	0.010834	-0.010986	-0.10086	-0.070038	-0.076599	0.032349	-0.05249	0.061646	-0.075378	-0.023804	0	-0.03418	-0.002899	0.38483	-0.088959	-0.001068	-0.012207
14.036	-0.003052	0.008698	-0.073547	-0.01709	-0.001068	0.022278	-0.031891	-0.007477	0.007019	0.016479	0.084381	0.006866	0.067444	-0.014343	-0.038452	0.018005	-0.019226	-0.10254	0.20111	-0.22278	0.041046	-0.054626	0.092468	-0.096741	-0.006714	-0.005188	0.003052	-0.001984	-0.14236	-0.070648	-0.005035	-0.010376
14.037	0.005035	0.014343	0.025635	-0.014954	-0.003662	0.022125	-0.029297	-0.002747	0.000763	-0.010376	0.1384	0.002594	0.080261	0.021057	0.45959	0.016937	-0.010834	-0.053558	0.22766	-0.2417	0.044556	-0.054474	0.1152	-0.083771	-0.010376	-0.003967	0.009613	-0.002136	-0.15366	-0.037537	0.000916	-0.006866
14.038	0.001221	-0.011444	0.028687	-0.007172	-0.005951	0.016785	-0.040741	-0.002289	0.002441	-0.000458	0.059204	0.010986	0.029602	0.068817	1.5526	0.020447	0.003204	-0.10605	-0.22675	-0.12024	0.044861	-0.036163	0.029755	-0.041046	-0.012665	-0.001678	0.002289	-0.00351	0.027924	-0.033264	-0.000153	-0.007935
14.039	0.000458	-0.037079	0.006866	-0.030518	-0.014801	-0.004578	-0.039368	-0.00061	0.015411	0.01236	-0.20996	0.005341	-0.024109	0.03479	-0.13229	0.014191	0.00351	-0.11414	-0.60043	0.017548	0.054016	-0.03891	-0.051117	-0.018158	-0.003662	-0.007935	0.072784	-0.005798	-0.35523	0.008392	0.000458	-0.019531
